<?xml version="1.0" encoding="UTF-8" standalone="no"?>
<!-- Created with Inkscape (http://www.inkscape.org/) -->

<svg
   xmlns:dc="http://purl.org/dc/elements/1.1/"
   xmlns:cc="http://creativecommons.org/ns#"
   xmlns:rdf="http://www.w3.org/1999/02/22-rdf-syntax-ns#"
   xmlns:svg="http://www.w3.org/2000/svg"
   xmlns="http://www.w3.org/2000/svg"
   xmlns:sodipodi="http://sodipodi.sourceforge.net/DTD/sodipodi-0.dtd"
   xmlns:inkscape="http://www.inkscape.org/namespaces/inkscape"
   width="180"
   height="180"
   viewBox="0 0 180.00001 180"
   id="svg4282"
   version="1.1"
   inkscape:version="0.91 r13725"
   sodipodi:docname="rotate-x.svg">
  <defs
     id="defs4284" />
  <sodipodi:namedview
     id="base"
     pagecolor="#ffffff"
     bordercolor="#666666"
     borderopacity="1.0"
     inkscape:pageopacity="0.0"
     inkscape:pageshadow="2"
     inkscape:zoom="1.4"
     inkscape:cx="43.336409"
     inkscape:cy="73.323739"
     inkscape:document-units="px"
     inkscape:current-layer="layer1"
     showgrid="false"
     units="px"
     fit-margin-top="0"
     fit-margin-left="0"
     fit-margin-right="0"
     fit-margin-bottom="0"
     inkscape:window-width="1263"
     inkscape:window-height="691"
     inkscape:window-x="20"
     inkscape:window-y="21"
     inkscape:window-maximized="0" />
  <metadata
     id="metadata4287">
    <rdf:RDF>
      <cc:Work
         rdf:about="">
        <dc:format>image/svg+xml</dc:format>
        <dc:type
           rdf:resource="http://purl.org/dc/dcmitype/StillImage" />
        <dc:title />
      </cc:Work>
    </rdf:RDF>
  </metadata>
  <g
     inkscape:label="Layer 1"
     inkscape:groupmode="layer"
     id="layer1"
     transform="translate(-285.10094,-133.43041)">
    <path
       style="color:#000000;font-style:normal;font-variant:normal;font-weight:normal;font-stretch:normal;font-size:medium;line-height:normal;font-family:sans-serif;text-indent:0;text-align:start;text-decoration:none;text-decoration-line:none;text-decoration-style:solid;text-decoration-color:#000000;letter-spacing:normal;word-spacing:normal;text-transform:none;direction:ltr;block-progression:tb;writing-mode:lr-tb;baseline-shift:baseline;text-anchor:start;white-space:normal;clip-rule:nonzero;display:inline;overflow:visible;visibility:visible;opacity:1;isolation:auto;mix-blend-mode:normal;color-interpolation:sRGB;color-interpolation-filters:linearRGB;solid-color:#000000;solid-opacity:1;fill:#ffffff;fill-opacity:1;fill-rule:nonzero;stroke:none;stroke-width:6.78645039;stroke-linecap:butt;stroke-linejoin:miter;stroke-miterlimit:4;stroke-dasharray:none;stroke-dashoffset:0;stroke-opacity:1;color-rendering:auto;image-rendering:auto;shape-rendering:auto;text-rendering:auto;enable-background:accumulate"
       d="m 288.73965,223.50317 c 2.7e-4,24.25438 7.24517,46.2751 19.16406,62.38867 11.61225,15.69899 27.85803,25.77109 45.95899,26.2832 l 0,0.13281 1.24805,-0.0469 c 0.0587,2e-4 0.11508,0.0117 0.17382,0.0117 l 0.0664,0 0.0645,-0.002 c 0.27353,-0.0104 0.54692,-0.0241 0.82032,-0.0391 0.17402,0.0125 0.34738,0.0245 0.52148,0.0352 l 0.16992,0.0117 0.16797,-0.008 c 0.27288,-0.0104 0.54561,-0.0242 0.81836,-0.0391 0.1739,0.0125 0.3475,0.0245 0.52148,0.0352 l 0.16797,0.0117 0.16993,-0.01 c 0.27289,-0.0104 0.5456,-0.0242 0.81835,-0.0391 0.1739,0.0125 0.34751,0.0245 0.52149,0.0352 l 0.16797,0.0117 0.16992,-0.008 c 0.27288,-0.0104 0.54561,-0.0242 0.81836,-0.0391 0.1739,0.0125 0.3475,0.0245 0.52148,0.0352 l 0.16797,0.0117 0.16992,-0.008 c 0.0228,-8.7e-4 0.0455,-0.003 0.0684,-0.004 l 0.41797,0.0254 0,-0.0449 c 0.11138,-0.005 0.22263,-0.01 0.33399,-0.0156 0.17314,0.0125 0.34631,0.0245 0.51953,0.0352 l 0.15039,0.01 0.15039,-0.004 c 0.60883,-0.0167 1.21799,-0.0509 1.82617,-0.0898 0.16338,0.0118 0.32679,0.023 0.49024,0.0332 0.015,9.4e-4 0.0299,0.003 0.0449,0.004 l 0.10547,0.006 c 0.19632,0.0145 0.39147,0.0288 0.58789,0.041 l 0.16992,0.0117 0.16992,-0.008 c 0.27288,-0.0104 0.54561,-0.0242 0.81836,-0.0391 0.1739,0.0125 0.3475,0.0245 0.52148,0.0352 l 0.16993,0.0117 0.16796,-0.008 c 0.27354,-0.0104 0.54692,-0.0241 0.82032,-0.0391 0.17422,0.0125 0.34914,0.0245 0.52343,0.0352 l 0.16797,0.0117 0.16797,-0.008 c 0.27288,-0.0104 0.54561,-0.0242 0.81836,-0.0391 0.17314,0.0125 0.34631,0.0245 0.51953,0.0352 l 0.16797,0.0117 0.16992,-0.008 c 0.27366,-0.0104 0.54679,-0.0242 0.82032,-0.0391 0.1739,0.0125 0.3475,0.0245 0.52148,0.0352 l 0.16992,0.0117 0.16797,-0.008 c 0.27288,-0.0104 0.54561,-0.0242 0.81836,-0.0391 0.1739,0.0125 0.3475,0.0245 0.52148,0.0352 l 0.16993,0.0117 0.16797,-0.008 c 0.27289,-0.0104 0.5456,-0.0242 0.81835,-0.0391 0.17391,0.0125 0.3475,0.0245 0.52149,0.0352 l 0.16992,0.0117 0.16797,-0.008 c 0.27353,-0.0104 0.54691,-0.0241 0.82031,-0.0391 0.11731,0.008 0.23422,0.0158 0.35156,0.0234 l 0,0.13476 1.45704,-0.15039 c 0.13061,0.009 0.26192,0.0192 0.39257,0.0274 l 0.16797,0.0117 0.16992,-0.008 c 0.27289,-0.0104 0.54561,-0.0242 0.81836,-0.0391 0.17345,0.0125 0.34796,0.0245 0.52149,0.0352 l 0.16797,0.0117 0.16992,-0.01 c 0.27288,-0.0104 0.54561,-0.0242 0.81836,-0.0391 0.17345,0.0125 0.34795,0.0245 0.52148,0.0351 l 0.16797,0.0117 0.16992,-0.008 c 0.27353,-0.0104 0.54692,-0.0241 0.82032,-0.0391 0.17402,0.0125 0.34738,0.0245 0.52148,0.0351 l 0.10742,0.008 0.10547,0 c 28.50295,-0.0444 53.27438,-24.0387 62.58789,-58.88281 l 13.37305,0 -31.51367,-54.58007 -31.51172,54.58007 12.37109,0 c -7.04336,24.52578 -22.27545,42.66293 -40.43555,49.24805 -25.73179,-9.29572 -44.59748,-41.56849 -44.63476,-79.13672 0.0291,-37.55412 18.87416,-69.82587 44.5918,-79.14453 18.73202,6.74904 34.36478,25.78434 41.12695,51.45703 l 0.66601,2.5293 3.36524,0 3.3164,0 1.97461,0 3.08204,0 0.29101,0 3.09961,0 0.24023,0 3.07813,0 1.95313,0 1.38281,0 1.99219,0 1.42578,0 1.92187,0 1.41211,0 1.93555,0 3.36328,0 3.37305,0 -1.11719,-4.25586 c -9.05799,-34.51225 -33.26091,-58.44056 -61.28516,-59.28125 l 0,-0.11719 -1.25,0.0488 c -0.0584,-3e-4 -0.11536,-0.01 -0.17383,-0.01 l -0.0644,0 -0.0644,0.004 c -0.13476,0.005 -0.26957,0.0136 -0.4043,0.0195 l 0,-0.0879 -0.95703,0.0703 -0.008,0 -0.15235,-0.008 -0.13476,0.006 0,-0.25195 -1.5586,0.24609 -0.14257,0.006 c -0.013,4.6e-4 -0.026,9.6e-4 -0.0391,0.002 l -0.85547,-0.0137 0,0.0449 c -0.15515,-0.0104 -0.30963,-0.0224 -0.46484,-0.0312 l -0.16016,-0.008 -0.1582,0.006 c -0.27067,0.01 -0.54196,0.0229 -0.8125,0.0371 -0.18261,-0.0125 -0.36417,-0.0246 -0.54687,-0.0352 l -0.16016,-0.008 -0.1582,0.006 c -0.27144,0.01 -0.54314,0.0229 -0.81446,0.0371 -0.18278,-0.0126 -0.36595,-0.0246 -0.54882,-0.0352 l -0.15821,-0.008 -0.1582,0.006 c -0.2708,0.01 -0.54183,0.023 -0.8125,0.0371 -0.18249,-0.0126 -0.36431,-0.0246 -0.54688,-0.0352 l -0.16015,-0.008 -0.1582,0.006 c -0.27067,0.01 -0.54195,0.0229 -0.8125,0.0371 -0.18278,-0.0126 -0.36596,-0.0246 -0.54883,-0.0352 l -0.15821,-0.008 -0.1582,0.006 c -0.27145,0.01 -0.54312,0.0229 -0.81445,0.0371 -0.18278,-0.0126 -0.36597,-0.0246 -0.54883,-0.0352 l -0.1582,-0.008 -0.16016,0.006 c -0.26988,0.01 -0.53884,0.023 -0.80859,0.0371 -0.18249,-0.0126 -0.36431,-0.0246 -0.54688,-0.0352 l -0.16015,-0.008 -0.15821,0.006 c -0.27145,0.01 -0.54313,0.0229 -0.81445,0.0371 -0.18279,-0.0126 -0.36597,-0.0246 -0.54883,-0.0352 l -0.1582,-0.008 -0.15821,0.006 c -0.2708,0.01 -0.54182,0.023 -0.8125,0.0371 -0.18265,-0.0126 -0.36608,-0.0246 -0.54882,-0.0352 l -0.14258,-0.008 -0.14258,0.004 c -0.61261,0.0163 -1.22594,0.0491 -1.83789,0.0879 -6.5e-4,4e-5 -0.003,-4e-5 -0.004,0 -0.0104,-8e-4 -0.0189,-9.5e-4 -0.0293,-0.002 -0.407,-0.031 -0.8133,-0.0609 -1.22071,-0.082 l -0.15039,-0.008 -0.0644,0.002 -1.95703,-0.11914 0,0.13281 c -0.20606,0.008 -0.41122,0.0165 -0.61719,0.0273 -0.18201,-0.0125 -0.36477,-0.0246 -0.54687,-0.0352 l -0.15821,-0.008 -0.16015,0.006 c -0.27052,0.01 -0.54015,0.023 -0.81055,0.0371 -0.18278,-0.0126 -0.36597,-0.0246 -0.54883,-0.0352 l -0.1582,-0.008 -0.16016,0.006 c -0.0762,0.003 -0.15236,0.007 -0.22851,0.01 l -0.94532,-0.0469 0,0.0508 c -0.0618,-0.004 -0.12376,-0.008 -0.18554,-0.0117 l -0.15821,-0.008 -0.16015,0.006 c -0.27223,0.01 -0.54431,0.0229 -0.81641,0.0371 -0.17792,-0.0128 -0.3552,-0.0262 -0.5332,-0.0371 l -0.10352,-0.006 -0.10547,0 c -18.67903,2e-4 -35.46385,10.27027 -47.38281,26.38477 -11.91896,16.11451 -19.1628,38.13532 -19.16211,62.39062 l 0,0.004 z"
       id="path4880"
       inkscape:connector-curvature="0" />
  </g>
</svg>
